<svg width="30" height="30" viewBox="0 0 30 30" fill="none" xmlns="http://www.w3.org/2000/svg">
<g id="Frame">
<path id="Vector" d="M25.5807 14.8455C25.5805 15.4524 25.407 16.0465 25.0807 16.558C24.7582 17.0711 24.2936 17.4794 23.7432 17.733L8.99318 24.8955C8.55443 25.0991 8.0769 25.2057 7.59319 25.208C7.39392 25.2321 7.19249 25.2321 6.99322 25.208C6.31355 25.0804 5.6944 24.7336 5.23067 24.2205C4.76538 23.7102 4.4838 23.0591 4.43065 22.3705C4.36932 21.6836 4.53153 20.9952 4.89314 20.408L8.48064 15.408C8.54385 15.2357 8.57777 15.054 8.58074 14.8705C8.57815 14.667 8.53124 14.4665 8.44325 14.283L5.13073 9.60805C4.77394 9.00106 4.62067 8.29586 4.69325 7.59553C4.77295 6.93301 5.05619 6.31151 5.50395 5.81673C5.95172 5.32196 6.54195 4.97827 7.19325 4.83303C7.85098 4.7069 8.53147 4.78542 9.14318 5.05803L23.7182 12.0205C24.2641 12.277 24.7256 12.6835 25.0488 13.1926C25.372 13.7019 25.5435 14.2925 25.5432 14.8955L25.5807 14.8455Z" fill="url(#paint0_linear_141_1368)"/>
</g>
<defs>
<linearGradient id="paint0_linear_141_1368" x1="2.11454" y1="9.0058" x2="54.7316" y2="18.259" gradientUnits="userSpaceOnUse">
<stop stop-color="#FFBA53"/>
<stop offset="1" stop-color="#FC8211"/>
</linearGradient>
</defs>
</svg>
