<svg width="38" height="31" viewBox="0 0 38 31" fill="none" xmlns="http://www.w3.org/2000/svg">
<g id="Frame 658">
<g id="Group 509">
<circle id="Ellipse 20" cx="16" cy="15.5" r="15" fill="white"/>
<path id="Vector 17" d="M11.9502 14.3778H8.23888H8.14075C8.01792 14.3778 7.95425 14.5257 8.03806 14.6163L15.2889 22.4555C15.3628 22.5354 15.4954 22.5025 15.5271 22.3979C17.2511 16.6963 19.0482 13.6934 23.9558 9.02151C23.9875 8.99131 24.0047 8.94711 23.9989 8.90349C23.9642 8.64548 23.8877 8.54043 23.6694 8.50177C23.6379 8.4962 23.6052 8.50409 23.578 8.52102C18.5359 11.6642 16.1477 13.5116 14.5122 16.9614C14.4683 17.054 14.3441 17.0726 14.2772 16.9952L12.0561 14.4264C12.0294 14.3955 11.9908 14.3778 11.9502 14.3778Z" fill="url(#paint0_linear_75_6450)"/>
</g>
</g>
<defs>
<linearGradient id="paint0_linear_75_6450" x1="6.2585" y1="11.3966" x2="45.7788" y2="19.0725" gradientUnits="userSpaceOnUse">
<stop stop-color="#FFBA53"/>
<stop offset="1" stop-color="#FC8211"/>
</linearGradient>
</defs>
</svg>
