<svg width="33" height="33" viewBox="0 0 33 33" fill="none" xmlns="http://www.w3.org/2000/svg">
<g id="instagram" clip-path="url(#clip0_60_417)">
<circle id="Ellipse 14" cx="16.5" cy="16.5" r="16.5" fill="white"/>
<path id="Vector" d="M20.8594 7.5127H11.6927C9.1614 7.5127 7.10938 9.56472 7.10938 12.096V21.2627C7.10938 23.794 9.1614 25.846 11.6927 25.846H20.8594C23.3907 25.846 25.4427 23.794 25.4427 21.2627V12.096C25.4427 9.56472 23.3907 7.5127 20.8594 7.5127Z" fill="#131D24"/>
<path id="Vector_2" d="M19.9421 16.1015C20.0552 16.8644 19.9249 17.6435 19.5697 18.3281C19.2145 19.0126 18.6525 19.5678 17.9636 19.9145C17.2747 20.2613 16.494 20.382 15.7326 20.2594C14.9711 20.1369 14.2677 19.7774 13.7224 19.2321C13.177 18.6867 12.8175 17.9833 12.695 17.2218C12.5725 16.4604 12.6932 15.6797 13.0399 14.9908C13.3867 14.3019 13.9418 13.7399 14.6264 13.3847C15.3109 13.0295 16.0901 12.8992 16.8529 13.0123C17.6311 13.1277 18.3516 13.4903 18.9078 14.0466C19.4641 14.6029 19.8267 15.3233 19.9421 16.1015Z" stroke="white" stroke-width="1.83333" stroke-linecap="round" stroke-linejoin="round"/>
<path id="Vector_3" d="M21.3164 11.6377H21.3264" stroke="white" stroke-width="1.83333" stroke-linecap="round" stroke-linejoin="round"/>
</g>
<defs>
<clipPath id="clip0_60_417">
<rect width="33" height="33" fill="white"/>
</clipPath>
</defs>
</svg>
