<svg width="33" height="33" viewBox="0 0 33 33" fill="none" xmlns="http://www.w3.org/2000/svg">
<g id="twitter" clip-path="url(#clip0_60_414)">
<circle id="Ellipse 14" cx="16.5" cy="16.5" r="16.5" fill="white"/>
<path id="Vector" d="M26.5846 8.25925C25.7068 8.88038 24.7349 9.35544 23.7063 9.66615C23.1542 9.02937 22.4205 8.57805 21.6044 8.3732C20.7883 8.16836 19.9292 8.21989 19.1432 8.52081C18.3572 8.82174 17.6824 9.35755 17.2099 10.0558C16.7374 10.754 16.49 11.5809 16.5013 12.4248V13.3443C14.8904 13.3862 13.2941 13.0278 11.8547 12.3011C10.4153 11.5743 9.17743 10.5017 8.2513 9.17879C8.2513 9.17879 4.58464 17.4547 12.8346 21.1329C10.9468 22.4184 8.69786 23.0629 6.41797 22.9719C14.668 27.5697 24.7513 22.9719 24.7513 12.3972C24.7505 12.1411 24.7259 11.8856 24.678 11.634C25.6135 10.7084 26.2737 9.53991 26.5846 8.25925Z" fill="#131D24"/>
</g>
<defs>
<clipPath id="clip0_60_414">
<rect width="33" height="33" fill="white"/>
</clipPath>
</defs>
</svg>
