<svg width="12" height="12" viewBox="0 0 12 12" fill="none" xmlns="http://www.w3.org/2000/svg">
<path id="Arrow 4" d="M0.498276 9.94253C0.190394 10.2196 0.165435 10.6938 0.442529 11.0017C0.719624 11.3096 1.19384 11.3346 1.50172 11.0575L0.498276 9.94253ZM11.749 1.53942C11.7707 1.12578 11.4531 0.772807 11.0394 0.751037L4.29875 0.396264C3.88511 0.374494 3.53214 0.692167 3.51037 1.10581C3.4886 1.51945 3.80627 1.87242 4.21991 1.89419L10.2116 2.20954L9.89626 8.20125C9.87449 8.61489 10.1922 8.96786 10.6058 8.98963C11.0195 9.0114 11.3724 8.69373 11.3942 8.28009L11.749 1.53942ZM1.50172 11.0575L11.5017 2.05747L10.4983 0.942529L0.498276 9.94253L1.50172 11.0575Z" fill="#393939"/>
</svg>
